<svg id="svg" version="1.1" xmlns="http://www.w3.org/2000/svg" xmlns:xlink="http://www.w3.org/1999/xlink" width="400" height="400" viewBox="0, 0, 400,400"><g id="svgg"><path id="path0" d="M119.859 1.090 C 118.166 1.344,115.386 4.298,115.083 6.167 C 114.725 8.370,115.640 12.400,116.498 12.400 C 116.664 12.400,116.800 12.584,116.800 12.809 C 116.800 13.033,117.262 13.915,117.826 14.767 C 122.987 22.567,122.143 33.484,115.611 43.400 C 113.218 47.034,111.794 49.644,110.703 52.400 C 110.485 52.950,110.148 53.713,109.953 54.095 C 109.759 54.477,109.600 55.296,109.600 55.915 C 109.600 56.534,109.435 57.211,109.234 57.420 C 108.088 58.608,108.088 74.192,109.234 75.380 C 109.435 75.589,109.600 76.266,109.600 76.885 C 109.600 77.504,109.759 78.323,109.953 78.705 C 110.148 79.087,110.485 79.850,110.703 80.400 C 112.422 84.742,115.315 89.430,117.551 91.500 C 118.985 92.826,124.800 93.548,124.800 92.400 C 124.800 92.180,125.083 92.000,125.429 92.000 C 128.377 92.000,130.040 84.033,127.599 81.600 C 127.489 81.490,127.144 80.905,126.832 80.300 C 126.520 79.695,126.115 79.200,125.932 79.200 C 125.750 79.200,125.600 78.840,125.600 78.400 C 125.600 77.960,125.420 77.600,125.200 77.600 C 124.980 77.600,124.800 77.251,124.800 76.824 C 124.800 76.397,124.620 75.936,124.400 75.800 C 124.180 75.664,124.000 75.034,124.000 74.400 C 124.000 73.766,123.842 73.149,123.649 73.030 C 122.581 72.370,122.569 60.931,123.635 59.820 C 123.836 59.611,124.000 58.947,124.000 58.344 C 124.000 57.741,124.180 57.136,124.400 57.000 C 124.620 56.864,124.800 56.403,124.800 55.976 C 124.800 55.549,124.980 55.200,125.200 55.200 C 125.420 55.200,125.600 55.024,125.600 54.810 C 125.600 54.595,126.774 52.604,128.209 50.386 C 130.541 46.781,131.550 44.886,132.887 41.600 C 133.110 41.050,133.452 40.287,133.647 39.905 C 133.841 39.523,134.000 38.679,134.000 38.029 C 134.000 37.379,134.155 36.752,134.343 36.635 C 135.621 35.845,135.621 18.955,134.343 18.165 C 134.155 18.048,134.000 17.421,134.000 16.771 C 134.000 16.121,133.841 15.277,133.647 14.895 C 133.452 14.513,133.111 13.750,132.887 13.200 C 128.812 3.160,125.654 0.224,119.859 1.090 M167.000 1.157 C 163.485 2.048,161.922 4.129,161.951 7.879 C 161.962 9.374,162.158 10.653,162.386 10.729 C 162.614 10.805,162.800 11.212,162.800 11.633 C 162.800 12.055,162.980 12.400,163.200 12.400 C 163.420 12.400,163.600 12.636,163.600 12.925 C 163.600 13.213,163.915 13.798,164.300 14.225 C 164.963 14.959,165.740 16.424,166.408 18.200 C 168.336 23.325,168.312 32.742,166.361 36.495 C 166.162 36.877,166.000 37.462,166.000 37.795 C 166.000 38.128,165.841 38.400,165.647 38.400 C 165.452 38.400,165.193 38.715,165.071 39.100 C 164.783 40.009,163.588 41.953,162.700 42.958 C 162.315 43.394,162.000 43.987,162.000 44.275 C 162.000 44.564,161.850 44.800,161.668 44.800 C 161.485 44.800,161.080 45.295,160.768 45.900 C 160.456 46.505,160.111 47.090,160.001 47.200 C 159.523 47.676,158.800 49.239,158.800 49.795 C 158.800 50.128,158.620 50.400,158.400 50.400 C 158.180 50.400,158.000 50.749,158.000 51.176 C 158.000 51.603,157.820 52.064,157.600 52.200 C 157.380 52.336,157.200 52.799,157.200 53.229 C 157.200 53.659,157.035 54.323,156.833 54.705 C 155.483 57.262,154.926 69.386,155.928 74.400 C 156.607 77.796,157.259 80.107,157.670 80.580 C 157.851 80.789,158.000 81.284,158.000 81.680 C 158.000 82.076,158.180 82.400,158.400 82.400 C 158.620 82.400,158.800 82.653,158.800 82.962 C 158.800 83.695,160.357 86.603,161.279 87.593 C 161.676 88.019,162.000 88.540,162.000 88.752 C 162.000 90.462,165.718 92.800,168.437 92.800 C 175.699 92.800,177.967 86.544,173.223 79.600 C 172.206 78.111,170.800 74.911,170.800 74.084 C 170.800 73.686,170.640 73.189,170.443 72.980 C 169.397 71.865,169.397 60.935,170.443 59.820 C 170.640 59.611,170.800 59.114,170.800 58.716 C 170.800 57.520,172.396 54.435,175.206 50.200 C 177.854 46.210,180.209 41.231,180.881 38.200 C 182.835 29.394,182.851 25.994,180.977 17.000 C 180.647 15.416,178.809 10.525,177.954 8.955 C 176.675 6.608,176.200 5.800,175.981 5.600 C 175.860 5.490,175.358 4.822,174.865 4.116 C 173.081 1.562,169.989 0.398,167.000 1.157 M214.200 1.052 C 211.526 1.684,208.824 4.239,208.761 6.196 C 208.681 8.687,208.881 10.604,209.234 10.733 C 209.435 10.807,209.600 11.212,209.600 11.633 C 209.600 12.055,209.780 12.400,210.000 12.400 C 210.220 12.400,210.400 12.670,210.400 13.000 C 210.400 13.330,210.580 13.600,210.800 13.600 C 211.020 13.600,211.200 13.870,211.200 14.200 C 211.200 14.530,211.336 14.800,211.502 14.800 C 211.669 14.800,212.040 15.385,212.329 16.100 C 212.617 16.815,213.021 17.713,213.226 18.095 C 213.432 18.477,213.600 19.116,213.600 19.515 C 213.600 19.914,213.760 20.411,213.957 20.620 C 214.311 20.997,214.853 25.101,214.853 27.400 C 214.853 29.699,214.311 33.803,213.957 34.180 C 213.760 34.389,213.600 34.963,213.600 35.456 C 213.600 35.949,213.420 36.464,213.200 36.600 C 212.980 36.736,212.800 37.197,212.800 37.624 C 212.800 38.051,212.620 38.400,212.400 38.400 C 212.180 38.400,212.000 38.760,212.000 39.200 C 212.000 39.640,211.850 40.000,211.668 40.000 C 211.485 40.000,211.080 40.495,210.768 41.100 C 210.455 41.705,209.885 42.549,209.500 42.975 C 209.115 43.402,208.800 43.987,208.800 44.275 C 208.800 44.564,208.632 44.800,208.427 44.800 C 208.222 44.800,207.940 45.159,207.801 45.598 C 207.662 46.036,207.329 46.621,207.062 46.898 C 206.352 47.631,204.028 53.367,203.562 55.535 C 201.559 64.852,201.559 67.948,203.562 77.265 C 204.028 79.433,206.352 85.169,207.062 85.902 C 207.329 86.179,207.662 86.764,207.801 87.202 C 207.940 87.641,208.222 88.000,208.427 88.000 C 208.632 88.000,208.800 88.235,208.800 88.522 C 208.800 89.155,211.074 91.608,212.302 92.300 C 215.770 94.254,222.289 91.380,222.458 87.822 C 222.615 84.536,221.697 81.350,220.112 79.681 C 219.841 79.396,219.330 78.496,218.976 77.681 C 218.622 76.867,218.168 75.887,217.966 75.505 C 217.765 75.123,217.600 74.484,217.600 74.085 C 217.600 73.686,217.394 73.154,217.143 72.903 C 216.475 72.235,216.505 61.844,217.182 59.800 C 218.392 56.142,219.958 52.800,220.463 52.800 C 220.648 52.800,220.800 52.610,220.800 52.378 C 220.800 51.869,224.007 47.056,224.472 46.867 C 224.653 46.793,224.800 46.388,224.800 45.967 C 224.800 45.545,224.980 45.200,225.200 45.200 C 225.420 45.200,225.600 44.928,225.600 44.595 C 225.600 44.262,225.759 43.677,225.953 43.295 C 230.169 35.008,230.169 19.792,225.953 11.505 C 225.759 11.123,225.600 10.538,225.600 10.205 C 225.600 9.872,225.420 9.600,225.200 9.600 C 224.980 9.600,224.800 9.322,224.800 8.983 C 224.800 8.644,224.440 7.980,224.000 7.508 C 223.560 7.036,223.200 6.413,223.200 6.125 C 223.200 5.836,223.020 5.600,222.800 5.600 C 222.580 5.600,222.400 5.421,222.400 5.203 C 222.400 4.672,220.843 2.895,219.592 1.999 C 218.541 1.246,215.580 0.726,214.200 1.052 M27.800 125.600 C 27.664 125.820,27.111 126.000,26.571 126.000 C 24.709 126.000,23.226 127.164,21.918 129.654 L 21.000 131.400 21.000 183.200 C 21.000 239.786,21.103 242.612,23.654 255.800 C 23.867 256.900,24.141 258.476,24.263 259.303 C 24.385 260.129,24.645 260.905,24.842 261.026 C 25.039 261.148,25.200 261.856,25.200 262.600 C 25.200 263.344,25.380 264.064,25.600 264.200 C 25.820 264.336,26.000 265.067,26.000 265.824 C 26.000 266.581,26.180 267.200,26.400 267.200 C 26.620 267.200,26.800 267.740,26.800 268.400 C 26.800 269.060,26.980 269.600,27.200 269.600 C 27.420 269.600,27.600 270.129,27.600 270.776 C 27.600 271.423,27.780 272.064,28.000 272.200 C 28.220 272.336,28.400 272.799,28.400 273.229 C 28.400 273.659,28.559 274.323,28.753 274.705 C 29.084 275.355,29.421 276.153,30.400 278.600 C 31.379 281.047,31.716 281.845,32.047 282.495 C 32.241 282.877,32.400 283.462,32.400 283.795 C 32.400 284.128,32.580 284.400,32.800 284.400 C 33.020 284.400,33.200 284.672,33.200 285.005 C 33.200 285.338,33.366 285.923,33.570 286.305 C 33.773 286.687,34.871 288.890,36.009 291.200 C 37.148 293.510,38.466 296.030,38.939 296.800 C 40.665 299.612,41.227 300.614,41.458 301.300 C 41.587 301.685,41.852 302.000,42.047 302.000 C 42.241 302.000,42.400 302.236,42.400 302.525 C 42.400 302.813,42.715 303.398,43.100 303.825 C 43.485 304.251,44.055 305.095,44.368 305.700 C 44.680 306.305,45.085 306.800,45.268 306.800 C 45.450 306.800,45.600 307.036,45.600 307.325 C 45.600 307.613,45.920 308.198,46.311 308.625 C 46.702 309.051,47.464 310.030,48.005 310.800 C 49.118 312.384,48.939 312.155,52.842 317.000 C 54.437 318.980,56.025 320.871,56.371 321.201 C 56.717 321.532,57.895 322.792,58.990 324.001 C 62.242 327.595,71.822 336.400,72.480 336.400 C 72.767 336.400,72.948 337.466,72.700 337.690 C 72.645 337.740,58.740 337.875,41.800 337.990 L 11.000 338.200 9.143 339.159 C 4.065 341.781,4.631 350.703,9.947 351.832 C 10.526 351.955,11.413 352.223,11.919 352.428 C 12.424 352.632,13.442 352.800,14.181 352.800 C 17.652 352.800,21.335 356.153,23.187 361.000 C 23.709 362.365,24.477 364.168,24.847 364.895 C 25.041 365.277,25.200 365.952,25.200 366.395 C 25.200 366.838,25.380 367.200,25.600 367.200 C 25.820 367.200,26.000 367.487,26.000 367.838 C 26.000 368.189,26.332 368.954,26.737 369.538 C 27.143 370.122,27.727 371.185,28.035 371.900 C 28.343 372.615,28.731 373.200,28.898 373.200 C 29.064 373.200,29.200 373.390,29.200 373.621 C 29.200 375.547,40.208 387.339,43.712 389.168 C 44.311 389.480,44.800 389.885,44.800 390.068 C 44.800 390.250,45.036 390.400,45.325 390.400 C 45.613 390.400,46.207 390.715,46.645 391.100 C 50.369 394.376,61.996 398.285,69.513 398.790 C 71.775 398.942,73.836 399.276,74.093 399.533 C 74.743 400.183,263.063 400.212,263.280 399.561 C 263.365 399.305,264.919 399.048,267.013 398.943 C 268.986 398.844,271.230 398.599,272.000 398.397 C 272.770 398.195,274.619 397.743,276.109 397.394 C 279.648 396.563,283.135 395.317,285.695 393.966 C 286.077 393.765,286.628 393.600,286.919 393.600 C 287.211 393.600,287.807 393.285,288.245 392.900 C 288.683 392.515,289.437 391.975,289.920 391.700 C 290.404 391.425,291.196 390.975,291.680 390.700 C 292.163 390.425,292.917 389.885,293.355 389.500 C 293.793 389.115,294.289 388.800,294.457 388.800 C 295.530 388.800,306.397 377.611,306.729 376.163 C 306.800 375.853,307.025 375.600,307.229 375.600 C 307.433 375.600,307.600 375.364,307.600 375.075 C 307.600 374.787,307.960 374.164,308.400 373.692 C 308.840 373.220,309.200 372.571,309.200 372.250 C 309.200 371.929,309.353 371.607,309.539 371.533 C 310.000 371.352,311.939 367.079,313.836 362.067 C 316.066 356.173,319.625 352.800,323.614 352.800 C 324.460 352.800,325.264 352.620,325.400 352.400 C 325.536 352.180,326.173 352.000,326.817 352.000 C 332.468 352.000,333.620 341.951,328.294 339.105 L 326.600 338.200 288.800 338.104 C 268.010 338.051,250.595 337.912,250.100 337.796 C 249.210 337.587,248.851 336.591,249.573 336.333 C 250.354 336.054,255.607 331.210,260.722 326.052 L 266.044 320.685 269.322 320.996 C 271.125 321.167,273.050 321.278,273.600 321.243 C 274.150 321.207,277.300 321.088,280.600 320.978 C 283.900 320.868,286.960 320.610,287.400 320.407 C 287.840 320.203,289.190 319.947,290.400 319.838 C 293.189 319.587,296.909 318.985,299.100 318.430 C 300.035 318.194,301.520 317.820,302.400 317.600 C 303.280 317.380,304.675 317.028,305.500 316.818 C 306.325 316.608,307.498 316.316,308.106 316.170 C 308.714 316.024,309.310 315.746,309.430 315.552 C 309.549 315.359,309.999 315.200,310.429 315.200 C 310.859 315.200,311.523 315.029,311.905 314.819 C 312.287 314.609,313.770 314.044,315.200 313.562 C 318.985 312.286,328.800 307.703,328.800 307.212 C 328.800 307.067,329.430 306.702,330.200 306.400 C 330.970 306.098,331.600 305.704,331.600 305.525 C 331.600 305.346,331.870 305.200,332.200 305.200 C 332.530 305.200,332.800 305.020,332.800 304.800 C 332.800 304.580,332.990 304.400,333.222 304.400 C 334.088 304.400,343.269 297.781,347.497 294.108 C 352.303 289.934,360.697 281.119,363.337 277.474 C 363.994 276.567,364.685 275.640,364.873 275.413 C 366.391 273.578,370.000 268.385,370.000 268.037 C 370.000 267.796,370.180 267.600,370.400 267.600 C 370.620 267.600,370.800 267.407,370.800 267.172 C 370.800 266.937,371.340 265.959,372.000 265.000 C 372.660 264.041,373.200 263.063,373.200 262.828 C 373.200 262.593,373.380 262.400,373.600 262.400 C 373.820 262.400,374.000 262.164,374.000 261.875 C 374.000 261.587,374.360 260.964,374.800 260.492 C 375.240 260.020,375.600 259.356,375.600 259.017 C 375.600 258.678,375.780 258.400,376.000 258.400 C 376.220 258.400,376.400 258.040,376.400 257.600 C 376.400 257.160,376.580 256.800,376.800 256.800 C 377.020 256.800,377.200 256.566,377.200 256.280 C 377.200 255.994,378.161 253.789,379.336 251.380 C 380.511 248.971,381.710 246.370,382.000 245.600 C 382.291 244.830,382.679 244.029,382.864 243.820 C 383.049 243.611,383.200 243.037,383.200 242.544 C 383.200 242.051,383.380 241.536,383.600 241.400 C 383.820 241.264,384.000 240.803,384.000 240.376 C 384.000 239.949,384.180 239.600,384.400 239.600 C 384.620 239.600,384.800 239.238,384.800 238.795 C 384.800 238.352,385.008 237.587,385.262 237.095 C 386.274 235.138,386.400 234.774,386.400 233.805 C 386.400 233.252,386.580 232.800,386.800 232.800 C 387.020 232.800,387.200 232.271,387.200 231.624 C 387.200 230.977,387.380 230.336,387.600 230.200 C 387.820 230.064,388.000 229.434,388.000 228.800 C 388.000 228.166,388.180 227.536,388.400 227.400 C 388.620 227.264,388.800 226.724,388.800 226.200 C 388.800 225.676,388.980 225.136,389.200 225.000 C 389.420 224.864,389.600 224.144,389.600 223.400 C 389.600 222.656,389.780 221.936,390.000 221.800 C 390.220 221.664,390.400 220.854,390.400 220.000 C 390.400 219.146,390.580 218.336,390.800 218.200 C 391.020 218.064,391.200 217.254,391.200 216.400 C 391.200 215.546,391.380 214.736,391.600 214.600 C 391.820 214.464,392.000 213.679,392.000 212.856 C 392.000 212.033,392.165 211.189,392.366 210.980 C 392.568 210.771,392.830 209.520,392.950 208.200 C 393.069 206.880,393.380 204.270,393.640 202.400 C 394.482 196.349,394.154 182.790,393.150 182.169 C 392.957 182.050,392.800 181.344,392.800 180.600 C 392.800 179.856,392.620 179.136,392.400 179.000 C 392.180 178.864,392.000 178.313,392.000 177.776 C 392.000 177.239,391.820 176.800,391.600 176.800 C 391.380 176.800,391.200 176.361,391.200 175.824 C 391.200 175.287,391.020 174.736,390.800 174.600 C 390.580 174.464,390.400 174.003,390.400 173.576 C 390.400 173.149,390.264 172.800,390.098 172.800 C 389.931 172.800,389.541 172.215,389.231 171.500 C 387.483 167.473,381.026 159.521,376.888 156.298 C 374.391 154.354,371.879 152.778,368.800 151.223 C 366.930 150.279,365.087 149.347,364.705 149.153 C 364.323 148.959,363.648 148.800,363.205 148.800 C 362.762 148.800,362.400 148.640,362.400 148.444 C 362.400 148.248,361.815 147.986,361.100 147.863 C 360.385 147.739,359.170 147.527,358.400 147.392 C 357.630 147.256,356.640 146.984,356.200 146.787 C 354.708 146.119,349.443 145.944,325.319 145.760 L 301.237 145.576 301.065 139.088 C 300.836 130.430,299.745 126.800,297.371 126.800 C 297.057 126.800,296.800 126.620,296.800 126.400 C 296.800 126.180,296.271 126.000,295.624 126.000 C 294.977 126.000,294.336 125.820,294.200 125.600 C 294.036 125.335,249.204 125.200,161.000 125.200 C 72.796 125.200,27.964 125.335,27.800 125.600 M286.251 190.300 C 286.145 222.325,285.934 241.346,285.661 243.400 C 285.094 247.665,284.544 250.970,283.998 253.400 C 283.751 254.500,283.451 256.076,283.332 256.903 C 283.213 257.729,282.955 258.505,282.758 258.626 C 282.561 258.748,282.400 259.456,282.400 260.200 C 282.400 260.944,282.220 261.664,282.000 261.800 C 281.780 261.936,281.600 262.476,281.600 263.000 C 281.600 263.524,281.420 264.064,281.200 264.200 C 280.980 264.336,280.800 264.966,280.800 265.600 C 280.800 266.234,280.620 266.864,280.400 267.000 C 280.180 267.136,280.000 267.599,280.000 268.029 C 280.000 268.459,279.841 269.123,279.647 269.505 C 279.283 270.221,278.589 271.846,277.900 273.600 C 277.684 274.150,277.348 274.913,277.153 275.295 C 276.959 275.677,276.800 276.352,276.800 276.795 C 276.800 277.238,276.620 277.600,276.400 277.600 C 276.180 277.600,276.000 277.960,276.000 278.400 C 276.000 278.840,275.820 279.200,275.600 279.200 C 275.380 279.200,275.200 279.472,275.200 279.805 C 275.200 280.138,275.031 280.723,274.824 281.105 C 274.617 281.487,273.895 282.935,273.219 284.322 C 271.429 287.994,269.236 291.958,267.936 293.872 C 267.311 294.792,266.800 295.737,266.800 295.972 C 266.800 296.207,266.620 296.400,266.400 296.400 C 266.180 296.400,266.000 296.636,266.000 296.925 C 266.000 297.213,265.640 297.836,265.200 298.308 C 264.760 298.780,264.400 299.354,264.400 299.583 C 264.400 299.812,264.259 300.000,264.086 300.000 C 263.914 300.000,263.457 300.533,263.072 301.185 C 262.687 301.837,262.147 302.602,261.873 302.885 C 261.598 303.168,260.938 304.030,260.406 304.800 C 259.873 305.570,259.154 306.470,258.808 306.800 C 258.461 307.130,257.553 308.210,256.790 309.200 C 256.027 310.190,255.042 311.378,254.601 311.841 C 247.861 318.918,245.056 321.621,241.995 323.989 C 241.008 324.752,239.909 325.697,239.553 326.089 C 239.197 326.480,238.779 326.800,238.625 326.800 C 238.470 326.800,238.106 327.025,237.816 327.300 C 236.620 328.435,232.244 331.647,230.049 333.000 C 229.692 333.220,229.310 333.503,229.200 333.630 C 229.090 333.756,228.190 334.296,227.200 334.830 C 226.210 335.363,225.310 335.911,225.200 336.046 C 225.090 336.182,224.242 336.677,223.316 337.146 L 221.632 338.000 160.821 338.000 L 100.011 338.000 96.506 335.910 C 94.577 334.760,92.940 333.680,92.867 333.510 C 92.793 333.339,92.523 333.200,92.267 333.200 C 92.010 333.199,91.277 332.749,90.638 332.200 C 89.999 331.650,89.336 331.200,89.166 331.200 C 88.996 331.200,88.619 330.969,88.329 330.687 C 88.038 330.405,87.170 329.732,86.400 329.193 C 85.003 328.213,84.302 327.662,82.666 326.255 C 82.190 325.845,81.178 325.035,80.419 324.455 C 77.334 322.099,68.944 313.902,66.447 310.804 C 65.651 309.816,64.664 308.646,64.254 308.204 C 63.843 307.762,62.493 306.050,61.254 304.400 C 60.014 302.750,58.865 301.340,58.700 301.267 C 58.535 301.193,58.400 300.878,58.400 300.567 C 58.400 300.255,58.220 300.000,58.000 300.000 C 57.780 300.000,57.600 299.730,57.600 299.400 C 57.600 299.070,57.450 298.800,57.268 298.800 C 57.085 298.800,56.680 298.305,56.368 297.700 C 56.055 297.095,55.485 296.251,55.100 295.825 C 54.715 295.398,54.400 294.813,54.400 294.525 C 54.400 294.236,54.241 294.000,54.047 294.000 C 53.852 294.000,53.590 293.685,53.464 293.300 C 53.338 292.915,52.684 291.700,52.011 290.600 C 51.337 289.500,49.702 286.350,48.376 283.600 C 47.050 280.850,45.793 278.287,45.583 277.905 C 45.372 277.523,45.200 277.020,45.200 276.786 C 45.200 276.552,44.840 275.616,44.400 274.706 C 43.960 273.795,43.600 272.811,43.600 272.519 C 43.600 272.228,43.420 271.632,43.200 271.195 C 42.980 270.758,42.620 270.042,42.400 269.605 C 42.180 269.168,42.000 268.459,42.000 268.029 C 42.000 267.599,41.820 267.136,41.600 267.000 C 41.380 266.864,41.200 266.223,41.200 265.576 C 41.200 264.929,41.020 264.400,40.800 264.400 C 40.580 264.400,40.400 263.871,40.400 263.224 C 40.400 262.577,40.220 261.936,40.000 261.800 C 39.780 261.664,39.600 260.944,39.600 260.200 C 39.600 259.456,39.420 258.736,39.200 258.600 C 38.980 258.464,38.800 257.769,38.800 257.056 C 38.800 256.343,38.638 255.589,38.441 255.380 C 38.097 255.016,37.821 253.527,37.366 249.600 C 37.252 248.610,36.994 247.440,36.794 247.000 C 36.038 245.342,35.921 238.915,35.759 190.300 L 35.594 140.400 161.004 140.400 L 286.415 140.400 286.251 190.300 M357.235 161.943 C 359.345 162.642,362.112 163.841,363.384 164.607 C 364.656 165.373,365.810 166.004,365.948 166.008 C 366.865 166.039,374.379 174.128,374.393 175.100 C 374.397 175.375,374.547 175.600,374.726 175.600 C 375.135 175.600,376.800 178.681,376.800 179.438 C 376.800 179.747,376.980 180.000,377.200 180.000 C 377.420 180.000,377.600 180.349,377.600 180.776 C 377.600 181.203,377.780 181.664,378.000 181.800 C 378.220 181.936,378.400 182.566,378.400 183.200 C 378.400 183.834,378.580 184.464,378.800 184.600 C 379.020 184.736,379.200 185.546,379.200 186.400 C 379.200 187.254,379.380 188.064,379.600 188.200 C 379.830 188.342,380.000 190.463,380.000 193.200 C 380.000 195.937,379.830 198.058,379.600 198.200 C 379.380 198.336,379.200 199.596,379.200 201.000 C 379.200 202.404,379.020 203.664,378.800 203.800 C 378.580 203.936,378.400 205.016,378.400 206.200 C 378.400 207.384,378.220 208.464,378.000 208.600 C 377.780 208.736,377.600 209.636,377.600 210.600 C 377.600 211.564,377.420 212.464,377.200 212.600 C 376.980 212.736,376.800 213.546,376.800 214.400 C 376.800 215.254,376.620 216.064,376.400 216.200 C 376.180 216.336,376.000 217.067,376.000 217.824 C 376.000 218.581,375.820 219.200,375.600 219.200 C 375.380 219.200,375.200 219.819,375.200 220.576 C 375.200 221.333,375.020 222.064,374.800 222.200 C 374.580 222.336,374.400 222.966,374.400 223.600 C 374.400 224.234,374.220 224.864,374.000 225.000 C 373.780 225.136,373.600 225.599,373.600 226.029 C 373.600 226.459,373.445 227.123,373.256 227.505 C 373.067 227.887,372.404 229.820,371.783 231.800 C 371.162 233.780,370.217 236.390,369.684 237.600 C 369.150 238.810,368.447 240.430,368.121 241.200 C 367.259 243.239,363.461 250.965,363.206 251.200 C 363.087 251.310,362.542 252.300,361.995 253.400 C 361.448 254.500,360.686 255.749,360.301 256.175 C 359.915 256.602,359.600 257.187,359.600 257.475 C 359.600 257.764,359.420 258.000,359.200 258.000 C 358.980 258.000,358.800 258.236,358.800 258.525 C 358.800 258.813,358.485 259.398,358.100 259.825 C 357.715 260.251,357.147 261.091,356.837 261.691 C 355.873 263.559,349.790 271.425,347.543 273.710 C 346.364 274.907,344.765 276.587,343.990 277.444 C 340.334 281.479,330.490 289.596,327.207 291.282 C 326.653 291.566,326.110 291.889,326.000 291.999 C 325.606 292.395,323.387 293.654,322.700 293.871 C 322.315 293.993,322.000 294.252,322.000 294.447 C 322.000 294.641,321.745 294.800,321.433 294.800 C 321.122 294.800,320.807 294.935,320.733 295.100 C 320.660 295.265,319.790 295.783,318.800 296.250 C 314.865 298.109,311.355 299.716,310.500 300.049 C 310.005 300.242,309.195 300.558,308.700 300.752 C 301.676 303.500,289.497 306.011,282.651 306.122 C 277.047 306.212,277.082 306.250,279.392 302.639 C 281.116 299.944,283.347 296.026,285.451 292.000 C 286.921 289.185,287.395 288.828,289.676 288.813 C 290.708 288.806,291.664 288.620,291.800 288.400 C 291.936 288.180,292.836 288.000,293.800 288.000 C 294.764 288.000,295.664 287.820,295.800 287.600 C 295.936 287.380,296.566 287.200,297.200 287.200 C 297.834 287.200,298.464 287.020,298.600 286.800 C 298.736 286.580,299.366 286.400,300.000 286.400 C 300.634 286.400,301.264 286.220,301.400 286.000 C 301.536 285.780,301.999 285.600,302.429 285.600 C 302.859 285.600,303.523 285.441,303.905 285.247 C 304.692 284.847,306.606 284.037,307.800 283.600 C 308.793 283.236,310.800 282.402,311.600 282.020 C 314.059 280.847,318.290 278.533,318.702 278.136 C 318.979 277.870,319.564 277.538,320.002 277.399 C 320.441 277.260,320.800 276.978,320.800 276.773 C 320.800 276.568,321.025 276.400,321.300 276.399 C 321.575 276.399,322.430 275.859,323.200 275.200 C 323.970 274.541,324.732 274.001,324.893 274.001 C 325.998 273.997,339.061 260.710,340.722 257.900 C 341.080 257.295,341.514 256.800,341.686 256.800 C 341.859 256.800,342.000 256.575,342.000 256.300 C 342.001 256.025,342.446 255.283,342.989 254.651 C 343.533 254.019,344.084 253.164,344.216 252.751 C 344.347 252.338,344.622 252.000,344.827 252.000 C 345.032 252.000,345.200 251.835,345.200 251.633 C 345.200 251.431,345.975 249.946,346.922 248.333 C 349.197 244.458,352.173 238.184,354.054 233.300 C 354.727 231.551,355.297 230.192,355.647 229.505 C 355.841 229.123,356.000 228.459,356.000 228.029 C 356.000 227.599,356.180 227.136,356.400 227.000 C 356.620 226.864,356.800 226.324,356.800 225.800 C 356.800 225.276,356.980 224.736,357.200 224.600 C 357.420 224.464,357.600 223.834,357.600 223.200 C 357.600 222.566,357.780 221.936,358.000 221.800 C 358.220 221.664,358.400 221.034,358.400 220.400 C 358.400 219.766,358.580 219.136,358.800 219.000 C 359.020 218.864,359.200 218.144,359.200 217.400 C 359.200 216.656,359.361 215.948,359.558 215.826 C 359.755 215.705,360.017 214.929,360.142 214.103 C 360.498 211.741,361.053 208.521,361.815 204.400 C 362.972 198.136,362.874 188.712,361.625 186.178 C 360.559 184.016,355.996 179.200,355.014 179.200 C 354.676 179.200,354.400 179.020,354.400 178.800 C 354.400 178.580,353.961 178.400,353.424 178.400 C 352.887 178.400,352.336 178.220,352.200 178.000 C 352.064 177.780,351.164 177.600,350.200 177.600 C 349.236 177.600,348.336 177.420,348.200 177.200 C 348.040 176.941,339.729 176.800,324.576 176.800 L 301.200 176.800 301.200 168.833 C 301.200 162.844,301.324 160.812,301.700 160.647 C 301.975 160.526,313.720 160.482,327.800 160.550 L 353.400 160.673 357.235 161.943 M348.633 194.100 C 348.399 196.121,347.909 199.815,347.373 203.600 C 347.233 204.590,346.956 205.571,346.759 205.780 C 346.562 205.989,346.400 206.923,346.400 207.856 C 346.400 208.789,346.220 209.664,346.000 209.800 C 345.780 209.936,345.600 210.746,345.600 211.600 C 345.600 212.454,345.420 213.264,345.200 213.400 C 344.980 213.536,344.800 214.166,344.800 214.800 C 344.800 215.434,344.620 216.064,344.400 216.200 C 344.180 216.336,344.000 216.977,344.000 217.624 C 344.000 218.271,343.820 218.800,343.600 218.800 C 343.380 218.800,343.200 219.329,343.200 219.976 C 343.200 220.623,343.020 221.264,342.800 221.400 C 342.580 221.536,342.400 222.166,342.400 222.800 C 342.400 223.434,342.256 224.042,342.079 224.151 C 341.903 224.260,341.510 225.261,341.207 226.375 C 340.904 227.489,340.508 228.400,340.328 228.400 C 340.147 228.400,340.000 228.738,340.000 229.150 C 340.000 229.852,337.761 235.224,336.728 237.000 C 336.472 237.440,335.552 239.140,334.683 240.777 C 333.815 242.414,332.867 243.990,332.578 244.279 C 332.289 244.568,331.938 245.164,331.799 245.602 C 331.660 246.041,331.378 246.400,331.173 246.400 C 330.968 246.400,330.799 246.625,330.798 246.900 C 330.797 247.175,330.302 247.940,329.698 248.600 C 329.094 249.260,328.072 250.520,327.428 251.400 C 325.913 253.468,319.069 260.312,317.000 261.828 C 316.121 262.472,315.052 263.315,314.625 263.700 C 314.198 264.085,313.613 264.400,313.325 264.400 C 313.036 264.400,312.800 264.550,312.800 264.732 C 312.800 264.915,312.305 265.320,311.700 265.632 C 311.095 265.944,310.510 266.315,310.400 266.458 C 309.349 267.821,295.836 273.130,294.613 272.660 C 293.889 272.382,293.905 272.284,295.694 266.000 C 296.841 261.967,297.093 260.884,298.016 256.000 C 298.244 254.790,298.609 252.900,298.826 251.800 C 300.277 244.442,300.785 235.320,301.036 212.100 L 301.253 192.000 325.065 192.000 L 348.877 192.000 348.633 194.100 M57.800 213.559 C 53.932 214.336,51.684 218.256,52.778 222.318 C 53.261 224.112,54.956 226.400,55.802 226.400 C 56.094 226.400,56.400 226.600,56.482 226.845 C 56.677 227.430,62.128 227.415,62.324 226.829 C 62.402 226.593,62.706 226.400,62.998 226.400 C 63.840 226.400,65.538 224.115,66.017 222.337 C 67.446 217.028,63.186 212.477,57.800 213.559 M60.500 244.505 C 59.565 244.730,58.800 245.068,58.800 245.257 C 58.800 245.446,58.539 245.600,58.220 245.600 C 55.249 245.600,54.359 254.452,56.844 259.295 C 57.040 259.677,57.200 260.431,57.200 260.971 C 57.200 261.511,57.380 262.064,57.600 262.200 C 57.820 262.336,58.000 262.799,58.000 263.229 C 58.000 263.659,58.159 264.323,58.353 264.705 C 58.548 265.087,58.884 265.850,59.100 266.400 C 59.316 266.950,59.721 267.940,60.000 268.600 C 60.279 269.260,60.640 270.160,60.803 270.600 C 61.411 272.244,63.011 275.405,63.300 275.533 C 63.465 275.607,63.600 276.012,63.600 276.433 C 63.600 276.855,63.780 277.200,64.000 277.200 C 64.220 277.200,64.400 277.560,64.400 278.000 C 64.400 278.440,64.580 278.800,64.800 278.800 C 65.020 278.800,65.200 279.160,65.200 279.600 C 65.200 280.040,65.336 280.400,65.502 280.400 C 65.669 280.400,66.063 280.983,66.378 281.696 C 67.121 283.373,73.523 293.217,74.381 294.000 C 74.742 294.330,75.477 295.230,76.013 296.000 C 77.596 298.272,77.960 298.673,83.415 304.157 C 89.437 310.211,92.029 312.523,95.455 314.898 C 96.805 315.834,99.000 317.365,100.333 318.300 C 101.666 319.235,103.036 320.000,103.378 320.000 C 103.720 320.000,104.000 320.180,104.000 320.400 C 104.000 321.869,109.424 320.466,111.285 318.515 C 115.305 314.302,113.788 310.117,106.400 305.041 C 100.710 301.131,93.159 294.173,88.743 288.771 C 88.005 287.868,86.976 286.649,86.457 286.064 C 84.476 283.828,78.869 274.813,76.840 270.600 C 75.674 268.180,74.558 265.887,74.360 265.505 C 74.162 265.123,74.000 264.538,74.000 264.205 C 74.000 263.872,73.820 263.600,73.600 263.600 C 73.380 263.600,73.200 263.161,73.200 262.624 C 73.200 262.087,73.020 261.536,72.800 261.400 C 72.580 261.264,72.400 260.803,72.400 260.376 C 72.400 259.949,72.220 259.600,72.000 259.600 C 71.780 259.600,71.600 259.071,71.600 258.424 C 71.600 257.777,71.420 257.136,71.200 257.000 C 70.980 256.864,70.800 256.234,70.800 255.600 C 70.800 254.966,70.620 254.336,70.400 254.200 C 70.180 254.064,70.000 253.524,70.000 253.000 C 70.000 252.476,69.820 251.936,69.600 251.800 C 69.380 251.664,69.200 251.124,69.200 250.600 C 69.200 250.076,69.020 249.536,68.800 249.400 C 68.580 249.264,68.400 248.832,68.400 248.441 C 68.400 247.505,65.458 244.800,64.441 244.800 C 64.004 244.800,63.536 244.620,63.400 244.400 C 63.114 243.938,62.813 243.949,60.500 244.505 M301.600 353.186 C 301.600 353.662,300.515 357.041,299.926 358.400 C 299.688 358.950,299.352 359.760,299.180 360.200 C 298.189 362.733,297.780 363.600,297.577 363.600 C 297.452 363.600,297.102 364.230,296.800 365.000 C 296.498 365.770,296.104 366.400,295.925 366.400 C 295.746 366.400,295.599 366.625,295.599 366.900 C 295.595 368.030,286.457 377.600,285.382 377.600 C 285.258 377.600,284.096 378.320,282.800 379.200 C 281.504 380.080,280.271 380.800,280.060 380.800 C 279.848 380.800,278.894 381.186,277.938 381.657 C 275.666 382.777,274.850 383.088,273.400 383.388 C 272.740 383.524,271.480 383.845,270.600 384.101 C 268.484 384.715,68.852 385.012,68.242 384.402 C 68.021 384.181,67.257 384.000,66.544 384.000 C 65.831 384.000,65.136 383.820,65.000 383.600 C 64.864 383.380,64.311 383.200,63.771 383.200 C 62.825 383.200,62.459 383.072,60.505 382.062 C 60.013 381.808,59.338 381.600,59.005 381.600 C 58.672 381.600,58.400 381.420,58.400 381.200 C 58.400 380.980,58.085 380.796,57.700 380.791 C 57.315 380.786,56.550 380.430,56.000 380.000 C 55.450 379.570,54.775 379.214,54.500 379.209 C 54.225 379.204,54.000 379.020,54.000 378.800 C 54.000 378.580,53.730 378.400,53.400 378.400 C 53.070 378.400,52.800 378.220,52.800 378.000 C 52.800 377.780,52.559 377.600,52.264 377.600 C 51.969 377.600,50.912 376.835,49.915 375.900 C 48.918 374.965,47.585 373.738,46.951 373.173 C 46.318 372.608,45.350 371.549,44.800 370.819 C 44.250 370.090,43.419 369.049,42.953 368.507 C 41.867 367.241,39.318 362.593,38.290 360.000 C 38.071 359.450,37.716 358.550,37.500 358.000 C 37.284 357.450,36.948 356.687,36.753 356.305 C 36.559 355.923,36.400 355.263,36.400 354.839 C 36.400 354.414,36.188 353.996,35.929 353.910 C 35.670 353.823,35.591 353.538,35.753 353.276 C 36.131 352.665,301.600 352.575,301.600 353.186 " stroke="none" fill="#000000" fill-rule="evenodd"></path><path id="path1" d="" stroke="none" fill="#080404" fill-rule="evenodd"></path><path id="path2" d="" stroke="none" fill="#080404" fill-rule="evenodd"></path><path id="path3" d="" stroke="none" fill="#080404" fill-rule="evenodd"></path><path id="path4" d="" stroke="none" fill="#080404" fill-rule="evenodd"></path></g></svg>